<?xml version="1.0" standalone="no"?><!DOCTYPE svg PUBLIC "-//W3C//DTD SVG 1.1//EN" "http://www.w3.org/Graphics/SVG/1.1/DTD/svg11.dtd"><svg t="1570977215277" class="icon" viewBox="0 0 1024 1024" version="1.1" xmlns="http://www.w3.org/2000/svg" p-id="1756" xmlns:xlink="http://www.w3.org/1999/xlink" width="200" height="200"><defs><style type="text/css"></style></defs><path d="M265.478912 995.328a13.056 13.056 0 0 1-10.24-5.12c-1.792-2.56-44.288-60.928-39.68-107.776a97.024 97.024 0 0 1 22.272-51.2A70.656 70.656 0 0 0 256.006912 788.48a120.064 120.064 0 0 0-18.176-57.6 12.8 12.8 0 0 1 3.84-17.664 12.544 12.544 0 0 1 17.664 4.096 145.408 145.408 0 0 1 22.272 72.192 94.976 94.976 0 0 1-23.04 57.088 73.216 73.216 0 0 0-17.664 38.4c-3.072 30.976 24.32 76.8 34.816 90.112a12.8 12.8 0 0 1-2.56 17.92 13.568 13.568 0 0 1-7.68 2.304zM503.046912 995.328a12.288 12.288 0 0 1-7.168-2.048 12.8 12.8 0 0 1-3.328-17.92 191.744 191.744 0 0 0 31.488-102.4 92.928 92.928 0 0 0-24.064-52.736 89.856 89.856 0 0 1-25.6-58.112 79.36 79.36 0 0 1 22.016-54.016 67.072 67.072 0 0 0 18.432-41.216 122.624 122.624 0 0 0-18.432-57.6 13.056 13.056 0 0 1 4.096-17.664 12.544 12.544 0 0 1 17.664 4.096 145.408 145.408 0 0 1 22.272 72.192 89.856 89.856 0 0 1-23.808 55.808 55.808 55.808 0 0 0-16.64 38.4 66.304 66.304 0 0 0 19.2 42.496A114.944 114.944 0 0 1 549.382912 870.4a213.76 213.76 0 0 1-35.84 118.528 12.288 12.288 0 0 1-10.496 6.4zM780.550912 995.328a13.056 13.056 0 0 1-10.24-5.12c-1.792-2.56-44.544-60.928-39.68-107.776a95.232 95.232 0 0 1 22.272-51.2 71.936 71.936 0 0 0 18.176-43.008 122.624 122.624 0 0 0-18.432-57.6 12.8 12.8 0 0 1 4.096-17.664 12.544 12.544 0 0 1 17.664 4.096 143.36 143.36 0 0 1 22.016 72.192 96.512 96.512 0 0 1-22.784 57.088 73.216 73.216 0 0 0-17.664 38.4c-3.072 30.976 24.064 76.8 34.816 90.112a12.8 12.8 0 0 1-2.56 17.92 14.08 14.08 0 0 1-7.68 2.56z" fill="#70BBEF" p-id="1757"></path><path d="M0.006912 417.28a281.6 256 90 1 0 512 0 281.6 256 90 1 0-512 0Z" fill="#94CFF7" p-id="1758"></path><path d="M256.006912 135.68c-141.312 0-256 125.952-256 281.6a296.96 296.96 0 0 0 60.16 181.248 241.152 241.152 0 0 0 153.6 57.088c141.312 0 256-125.952 256-281.6A297.984 297.984 0 0 0 409.606912 193.024a239.872 239.872 0 0 0-153.6-57.344z" fill="#AAD6F9" p-id="1759"></path><path d="M288.262912 735.232H223.750912a5.12 5.12 0 0 1-4.864-6.656l14.848-44.544h44.544l14.848 44.544a5.12 5.12 0 0 1-4.864 6.656z" fill="#94CFF7" p-id="1760"></path><path d="M60.934912 412.416c-4.096 0-4.864-9.728-4.864-12.032a221.44 221.44 0 0 1 36.096-133.888c7.936-11.264 18.688-18.432 23.552-16.64s5.12 9.984 2.048 13.824a161.792 161.792 0 0 0-39.168 72.96c-16.128 48.896-14.848 75.52-17.664 75.776z" fill="#FFFFFF" p-id="1761"></path><path d="M133.894912 235.008m-11.264 0a11.264 11.264 0 1 0 22.528 0 11.264 11.264 0 1 0-22.528 0Z" fill="#FFFFFF" p-id="1762"></path><path d="M512.006912 417.28a281.6 256 90 1 0 512 0 281.6 256 90 1 0-512 0Z" fill="#BE92F1" p-id="1763"></path><path d="M768.006912 135.68c-141.312 0-256 125.952-256 281.6a296.96 296.96 0 0 0 60.16 181.248 241.152 241.152 0 0 0 153.6 57.088c141.312 0 256-125.952 256-281.6A297.984 297.984 0 0 0 921.606912 193.024a239.872 239.872 0 0 0-153.6-57.344z" fill="#C1A0EF" p-id="1764"></path><path d="M800.262912 735.232h-64.512a5.12 5.12 0 0 1-4.864-6.656l14.848-44.544h44.544l14.848 44.544a5.12 5.12 0 0 1-4.864 6.656z" fill="#BE92F1" p-id="1765"></path><path d="M256.006912 289.28a281.6 256 90 1 0 512 0 281.6 256 90 1 0-512 0Z" fill="#F0A0F2" p-id="1766"></path><path d="M512.006912 7.68c-141.312 0-256 125.952-256 281.6a296.96 296.96 0 0 0 60.16 181.248 241.152 241.152 0 0 0 153.6 57.088c141.312 0 256-125.952 256-281.6A297.984 297.984 0 0 0 665.606912 65.024 239.872 239.872 0 0 0 512.006912 7.68z" fill="#F5AEF4" p-id="1767"></path><path d="M544.262912 607.232h-64.512a5.12 5.12 0 0 1-4.864-6.656l14.848-44.544h44.544l14.848 44.544a5.12 5.12 0 0 1-4.864 6.656z" fill="#F0A0F2" p-id="1768"></path><path d="M308.486912 281.6c-4.096 0-4.864-9.728-5.12-11.776a222.72 222.72 0 0 1 36.352-133.888c7.936-11.264 18.432-18.688 23.552-16.896s5.12 9.984 2.048 13.824a163.584 163.584 0 0 0-39.168 72.96 745.728 745.728 0 0 0-17.664 75.776z" fill="#FFFFFF" p-id="1769"></path><path d="M381.446912 104.96m-11.264 0a11.264 11.264 0 1 0 22.528 0 11.264 11.264 0 1 0-22.528 0Z" fill="#FFFFFF" p-id="1770"></path></svg>