<?xml version="1.0" standalone="no"?><!DOCTYPE svg PUBLIC "-//W3C//DTD SVG 1.1//EN" "http://www.w3.org/Graphics/SVG/1.1/DTD/svg11.dtd"><svg t="1570977241055" class="icon" viewBox="0 0 1024 1024" version="1.1" xmlns="http://www.w3.org/2000/svg" p-id="1896" xmlns:xlink="http://www.w3.org/1999/xlink" width="200" height="200"><defs><style type="text/css"></style></defs><path d="M780.677953 689.304036h-537.355906l67.041546 286.589816C315.737152 1002.761648 403.761167 1024 512 1024s196.262848-21.238352 201.124639-48.106148z" fill="#BE92F1" p-id="1897"></path><path d="M310.875361 975.893852c4.350024 25.588376 81.371037 45.035543 179.118635 47.850264 98.003482-2.814721 174.768611-23.029539 179.118636-47.850264l67.041546-286.589816H243.322047l67.041546 286.589816z" fill="#C1A0EF" p-id="1898"></path><path d="M243.322047 665.762729v67.041547c0 37.103146 120.265369 67.29743 268.677953 67.29743s268.677953-30.194284 268.677953-67.29743V665.762729z" fill="#BE92F1" p-id="1899"></path><path d="M243.322047 643.244958v67.29743c0 37.103146 120.265369 67.041546 268.677953 67.041546s268.677953-29.9384 268.677953-67.041546v-67.29743z" fill="#C1A0EF" p-id="1900"></path><path d="M243.322047 643.244958a268.677953 67.29743 0 1 0 537.355906 0 268.677953 67.29743 0 1 0-537.355906 0Z" fill="#BE92F1" p-id="1901"></path><path d="M320.854828 818.013569m-15.097142 0a15.097142 15.097142 0 1 0 30.194284 0 15.097142 15.097142 0 1 0-30.194284 0Z" fill="#FFFFFF" p-id="1902"></path><path d="M318.807758 852.557878c4.09414-6.397094 12.538304-9.467699 18.167747 4.605907a677.580209 677.580209 0 0 1 10.747118 108.494717c0 16.888328-15.097142-24.053074-20.470701-45.035543s-15.60891-56.550312-8.444164-68.065081z" fill="#FFFFFF" p-id="1903"></path><path d="M958.773053 26.053317a58.085615 58.085615 0 0 0-84.441642-13.561839A122.31244 122.31244 0 0 0 844.648894 92.327212v15.864794a102.353506 102.353506 0 0 0-87.768131-3.582373c-42.732589 17.144212-81.882805 70.368035-110.030019 133.315442a1003.576126 1003.576126 0 0 0-43.756124 123.335974l45.54731 39.661984A396.108068 396.108068 0 0 0 819.060518 341.557999c60.900336-38.894332 105.679995-98.771133 93.653458-153.530259A111.821205 111.821205 0 0 0 895.825647 153.9952a186.283381 186.283381 0 0 0 45.035543-41.45317c21.494236-27.89133 31.729587-62.691522 17.911863-86.488713zM391.222863 507.882446l31.729587-43.50024a354.14313 354.14313 0 0 0-66.018011-145.853746c-39.4061-51.176753-96.212296-86.232829-143.294909-71.135686-40.173751 12.794188-97.491714 76.765129-62.691522 144.062559 18.679515 36.591378 69.088616 67.29743 127.941882 87.256364a864.119474 864.119474 0 0 0 112.332973 29.170749z" fill="#20CACE" p-id="1904"></path><path d="M409.646494 482.805837l13.56184-18.423631a354.14313 354.14313 0 0 0-66.018012-145.853746c-39.4061-51.176753-96.212296-86.232829-143.294908-71.135686a90.326969 90.326969 0 0 0-25.588376 14.585374 96.724063 96.724063 0 0 0-11.770654 105.679995c18.679515 36.591378 69.088616 67.29743 127.941883 87.00048a808.848581 808.848581 0 0 0 105.168227 28.147214z" fill="#44DCDF" p-id="1905"></path><path d="M938.558236 26.053317a64.226825 64.226825 0 0 0-40.685519-25.588376 47.850264 47.850264 0 0 0-23.541306 11.770653A122.31244 122.31244 0 0 0 844.648894 92.327212v15.864794a102.353506 102.353506 0 0 0-87.768131-3.582373c-38.638448 15.353026-73.950408 60.132685-101.074087 114.635927A115.915345 115.915345 0 0 0 627.147694 189.818927c-55.526777-38.126681-194.215777-53.223823-252.045508 51.176753-30.961936 55.782661-23.541306 145.341978 5.373559 234.901296A1288.886523 1288.886523 0 0 0 449.820245 640.174353H537.588376a529.935277 529.935277 0 0 0 131.012488-211.104106 350.560758 350.560758 0 0 0 13.817723-61.15622 404.552232 404.552232 0 0 0 113.612392-49.129683c60.900336-38.894332 105.935879-98.771133 93.653458-153.530259a93.397574 93.397574 0 0 0-7.164746-19.191282A192.680475 192.680475 0 0 0 921.414024 112.286146c20.726585-27.635447 31.473703-62.435639 17.144212-86.232829z" fill="#44DCDF" p-id="1906"></path><path d="M588.765129 189.818927a186.539265 186.539265 0 0 0-87.00048-27.891331 155.321445 155.321445 0 0 0-127.941882 78.300432c-30.961936 55.782661-23.541306 145.341978 5.373559 234.901297A1288.886523 1288.886523 0 0 0 449.820245 640.174353h49.129683a531.982347 531.982347 0 0 0 131.012488-211.35999c30.450168-92.885807 22.773655-194.215777-41.197287-238.995436z" fill="#7AEDE5" p-id="1907"></path><path d="M519.676513 69.297674a44.012008 44.012008 0 0 0-34.544308 25.588376A43.244356 43.244356 0 0 0 446.237872 77.23007a35.823727 35.823727 0 0 0-32.753121 40.685519 63.459174 63.459174 0 0 0 30.706051 45.291426 165.045028 165.045028 0 0 0 51.176753 19.958934A164.277377 164.277377 0 0 0 539.635447 153.9952a63.459174 63.459174 0 0 0 20.470701-51.176753 35.567843 35.567843 0 0 0-40.429635-33.520773zM125.871399 222.827932A35.056076 35.056076 0 0 0 122.800794 256.348706a35.056076 35.056076 0 0 0-30.450168 15.097142 28.403098 28.403098 0 0 0 7.932396 40.941402 51.176753 51.176753 0 0 0 43.244357 4.861792 131.012488 131.012488 0 0 0 38.382564-20.214818 130.244836 130.244836 0 0 0 5.117676-42.988472 51.176753 51.176753 0 0 0-20.214818-38.638449 28.403098 28.403098 0 0 0-40.941402 7.420629z" fill="#F0A0F2" p-id="1908"></path><path d="M444.70257 652.968541m-38.894332 0a38.894332 38.894332 0 1 0 77.788664 0 38.894332 38.894332 0 1 0-77.788664 0Z" fill="#F6DAF7" p-id="1909"></path><path d="M617.424111 637.103748m-40.429635 0a40.429635 40.429635 0 1 0 80.85927 0 40.429635 40.429635 0 1 0-80.85927 0Z" fill="#FFFFFF" p-id="1910"></path><path d="M563.176753 639.918469m-39.150216 0a39.150216 39.150216 0 1 0 78.300432 0 39.150216 39.150216 0 1 0-78.300432 0Z" fill="#F6DAF7" p-id="1911"></path><path d="M511.744116 646.059679m-46.826729 0a46.826729 46.826729 0 1 0 93.653458 0 46.826729 46.826729 0 1 0-93.653458 0Z" fill="#FFFFFF" p-id="1912"></path><path d="M386.872839 641.197888m-40.685519 0a40.685519 40.685519 0 1 0 81.371038 0 40.685519 40.685519 0 1 0-81.371038 0Z" fill="#FFFFFF" p-id="1913"></path></svg>